<?xml version="1.0" standalone="no"?><!DOCTYPE svg PUBLIC "-//W3C//DTD SVG 1.1//EN" "http://www.w3.org/Graphics/SVG/1.1/DTD/svg11.dtd"><svg width="100%" height="100%" viewBox="0 0 1024 1024" version="1.1" xmlns="http://www.w3.org/2000/svg" xmlns:xlink="http://www.w3.org/1999/xlink" xml:space="preserve" style="fill-rule:evenodd;clip-rule:evenodd;stroke-linejoin:round;stroke-miterlimit:1.41421;"><g id="1 wheel"><g id="Hi profile Wheel"><path id="Rim" d="M512,102c226.285,0 410,183.715 410,410c0,226.285 -183.715,410 -410,410c-226.285,0 -410,-183.715 -410,-410c0,-226.285 183.715,-410 410,-410ZM512,225c158.4,0 287,128.6 287,287c0,158.4 -128.6,287 -287,287c-158.4,0 -287,-128.6 -287,-287c0,-158.4 128.6,-287 287,-287Z" style="fill:#333;"/><path id="Decole" d="M828.078,250.859c-23.06,-27.912 -49.716,-52.646 -79.272,-73.557l-70.998,100.347c20.695,14.642 39.359,31.961 55.505,51.504l94.765,-78.294Z" style="fill:#ff3827;"/></g></g></svg>