<?xml version="1.0" standalone="no"?><!DOCTYPE svg PUBLIC "-//W3C//DTD SVG 1.1//EN" "http://www.w3.org/Graphics/SVG/1.1/DTD/svg11.dtd"><svg width="100%" height="100%" viewBox="0 0 1024 1024" version="1.1" xmlns="http://www.w3.org/2000/svg" xmlns:xlink="http://www.w3.org/1999/xlink" xml:space="preserve" style="fill-rule:evenodd;clip-rule:evenodd;stroke-linejoin:round;stroke-miterlimit:1.41421;"><g id="1-wheel"><g id="Hi profile Wheel"><g><path id="Rim 90" d="M512,141.158c204.673,0 370.842,166.169 370.842,370.842c0,204.673 -166.169,370.842 -370.842,370.842c-204.673,0 -370.842,-166.169 -370.842,-370.842c0,-204.673 166.169,-370.842 370.842,-370.842ZM512,300.62c116.664,0 211.38,94.716 211.38,211.38c0,116.664 -94.716,211.38 -211.38,211.38c-116.664,0 -211.38,-94.716 -211.38,-211.38c0,-116.664 94.716,-211.38 211.38,-211.38Z" style="fill:#494949;"/><path id="Rim 60" d="M512,141.158c204.673,0 370.842,166.169 370.842,370.842c0,204.673 -166.169,370.842 -370.842,370.842c-204.673,0 -370.842,-166.169 -370.842,-370.842c0,-204.673 166.169,-370.842 370.842,-370.842ZM512,233.869c153.505,0 278.131,124.626 278.131,278.131c0,153.505 -124.626,278.131 -278.131,278.131c-153.505,0 -278.131,-124.626 -278.131,-278.131c0,-153.505 124.626,-278.131 278.131,-278.131Z" style="fill:#353434;"/><path id="Rim 30" d="M512,141.158c204.673,0 370.842,166.169 370.842,370.842c0,204.673 -166.169,370.842 -370.842,370.842c-204.673,0 -370.842,-166.169 -370.842,-370.842c0,-204.673 166.169,-370.842 370.842,-370.842ZM512,170.826c188.299,0 341.174,152.875 341.174,341.174c0,188.299 -152.875,341.174 -341.174,341.174c-188.299,0 -341.174,-152.875 -341.174,-341.174c0,-188.299 152.875,-341.174 341.174,-341.174Z" style="fill:#262525;"/><path id="tire decole" d="M512,129.503c211.106,0 382.497,171.391 382.497,382.497c0,211.106 -171.391,382.497 -382.497,382.497c-211.106,0 -382.497,-171.391 -382.497,-382.497c0,-211.106 171.391,-382.497 382.497,-382.497ZM512,140.978c204.772,0 371.022,166.25 371.022,371.022c0,204.772 -166.25,371.022 -371.022,371.022c-204.772,0 -371.022,-166.25 -371.022,-371.022c0,-204.772 166.25,-371.022 371.022,-371.022Z" style="fill:#d8040b;stroke-width:1px;stroke:#7e5184;"/><path id="tire" d="M512,109.372c222.216,0 402.628,180.412 402.628,402.628c0,222.216 -180.412,402.628 -402.628,402.628c-222.216,0 -402.628,-180.412 -402.628,-402.628c0,-222.216 180.412,-402.628 402.628,-402.628ZM512,129.503c211.106,0 382.497,171.391 382.497,382.497c0,211.106 -171.391,382.497 -382.497,382.497c-211.106,0 -382.497,-171.391 -382.497,-382.497c0,-211.106 171.391,-382.497 382.497,-382.497Z" style="fill:#000;"/></g></g></g></svg>