<?xml version="1.0" standalone="no"?><!DOCTYPE svg PUBLIC "-//W3C//DTD SVG 1.1//EN" "http://www.w3.org/Graphics/SVG/1.1/DTD/svg11.dtd"><svg width="100%" height="100%" viewBox="0 0 1024 1024" version="1.1" xmlns="http://www.w3.org/2000/svg" xmlns:xlink="http://www.w3.org/1999/xlink" xml:space="preserve" style="fill-rule:evenodd;clip-rule:evenodd;stroke-linejoin:round;stroke-miterlimit:1.41421;"><g id="2 wheels"><g id="Hi profile Wheel"><path id="Rim" d="M740.255,688.161c-97.102,6.875 -181.519,-66.378 -188.394,-163.481c-6.875,-97.102 66.378,-181.519 163.481,-188.394c97.102,-6.875 181.519,66.378 188.394,163.481c6.875,97.102 -66.378,181.519 -163.481,188.394ZM737.141,644.177c-72.827,5.156 -136.139,-49.784 -141.296,-122.611c-5.156,-72.827 49.784,-136.139 122.611,-141.296c72.827,-5.156 136.139,49.784 141.296,122.611c5.156,72.827 -49.784,136.139 -122.611,141.296Z" style="fill:#222;stroke-width:2px;stroke:#000;"/><path id="Rim1" d="M308.658,687.714c-97.102,6.875 -181.519,-66.378 -188.394,-163.481c-6.875,-97.102 66.378,-181.519 163.481,-188.394c97.102,-6.875 181.519,66.378 188.394,163.481c6.875,97.102 -66.378,181.519 -163.481,188.394ZM302.43,599.745c-48.551,3.438 -90.76,-33.189 -94.197,-81.74c-3.438,-48.551 33.189,-90.76 81.74,-94.197c48.551,-3.438 90.76,33.189 94.197,81.74c3.438,48.551 -33.189,90.76 -81.74,94.197Z" style="fill:#222;stroke-width:2px;stroke:#000;"/><path id="Rim2" d="M739.808,687.714c-97.102,6.875 -181.519,-66.378 -188.394,-163.481c-6.875,-97.102 66.378,-181.519 163.481,-188.394c97.102,-6.875 181.519,66.378 188.394,163.481c6.875,97.102 -66.378,181.519 -163.481,188.394ZM733.58,599.745c-48.551,3.438 -90.76,-33.189 -94.197,-81.74c-3.438,-48.551 33.189,-90.76 81.74,-94.197c48.551,-3.438 90.76,33.189 94.197,81.74c3.438,48.551 -33.189,90.76 -81.74,94.197Z" style="fill:#222;stroke-width:2px;stroke:#000;"/></g></g></svg>