<?xml version="1.0" standalone="no"?><!DOCTYPE svg PUBLIC "-//W3C//DTD SVG 1.1//EN" "http://www.w3.org/Graphics/SVG/1.1/DTD/svg11.dtd"><svg width="100%" height="100%" viewBox="0 0 1024 1024" version="1.1" xmlns="http://www.w3.org/2000/svg" xmlns:xlink="http://www.w3.org/1999/xlink" xml:space="preserve" style="fill-rule:evenodd;clip-rule:evenodd;stroke-linejoin:round;stroke-miterlimit:1.41421;"><g id="2 wheels"><g id="Hi profile Wheel"><path id="Rim" d="M740.255,907.183c-97.102,6.875 -181.519,-66.378 -188.394,-163.481c-6.875,-97.103 66.378,-181.519 163.481,-188.394c97.102,-6.876 181.519,66.378 188.394,163.48c6.875,97.103 -66.378,181.519 -163.481,188.395ZM737.141,863.198c-72.827,5.157 -136.139,-49.783 -141.296,-122.61c-5.156,-72.827 49.784,-136.14 122.611,-141.296c72.827,-5.156 136.139,49.783 141.296,122.61c5.156,72.827 -49.784,136.14 -122.611,141.296Z" style="fill:#222;stroke-width:2px;stroke:#000;"/><path id="Rim1" d="M308.658,906.736c-97.102,6.875 -181.519,-66.378 -188.394,-163.481c-6.875,-97.103 66.378,-181.519 163.481,-188.394c97.102,-6.876 181.519,66.378 188.394,163.48c6.875,97.103 -66.378,181.519 -163.481,188.395ZM302.43,818.767c-48.551,3.437 -90.76,-33.189 -94.197,-81.74c-3.438,-48.552 33.189,-90.76 81.74,-94.198c48.551,-3.437 90.76,33.189 94.197,81.741c3.438,48.551 -33.189,90.759 -81.74,94.197Z" style="fill:#222;stroke-width:2px;stroke:#000;"/><path id="Rim2" d="M739.808,906.736c-97.102,6.875 -181.519,-66.378 -188.394,-163.481c-6.875,-97.103 66.378,-181.519 163.481,-188.394c97.102,-6.876 181.519,66.378 188.394,163.48c6.875,97.103 -66.378,181.519 -163.481,188.395ZM733.58,818.767c-48.551,3.437 -90.76,-33.189 -94.197,-81.74c-3.438,-48.552 33.189,-90.76 81.74,-94.198c48.551,-3.437 90.76,33.189 94.197,81.741c3.438,48.551 -33.189,90.759 -81.74,94.197Z" style="fill:#222;stroke-width:2px;stroke:#000;"/></g></g></svg>