<?xml version="1.0" standalone="no"?><!DOCTYPE svg PUBLIC "-//W3C//DTD SVG 1.1//EN" "http://www.w3.org/Graphics/SVG/1.1/DTD/svg11.dtd"><svg width="100%" height="100%" viewBox="0 0 1024 1024" version="1.1" xmlns="http://www.w3.org/2000/svg" xmlns:xlink="http://www.w3.org/1999/xlink" xml:space="preserve" style="fill-rule:evenodd;clip-rule:evenodd;stroke-linejoin:round;stroke-miterlimit:1.41421;"><g id="Chainrings"><path id="34" d="M513.834,262.007c-1.223,-0.009 -2.445,-0.009 -3.668,0l-10.736,13.626c-6.189,0.329 -12.362,0.901 -18.506,1.715l-13.057,-11.422c-1.204,0.216 -2.406,0.441 -3.606,0.674l-8.049,15.367c-6.023,1.461 -11.987,3.158 -17.877,5.086l-14.933,-8.827c-1.143,0.433 -2.283,0.875 -3.42,1.325l-5.089,16.584c-5.652,2.543 -11.202,5.306 -16.637,8.284l-16.301,-5.933c-1.044,0.636 -2.084,1.28 -3.119,1.931l-1.955,17.237c-5.088,3.538 -10.036,7.274 -14.831,11.2l-17.114,-2.837c-0.91,0.817 -1.813,1.641 -2.711,2.471l1.246,17.303c-4.352,4.412 -8.529,8.994 -12.521,13.735l-17.344,0.356c-0.744,0.97 -1.481,1.946 -2.21,2.927l4.404,16.779c-3.467,5.137 -6.731,10.409 -9.784,15.802l-16.983,3.537c-0.553,1.09 -1.098,2.185 -1.635,3.283l7.412,15.684c-2.464,5.687 -4.704,11.468 -6.714,17.331l-16.044,6.597c-0.343,1.174 -0.678,2.35 -1.004,3.528l10.168,14.055c-1.377,6.043 -2.516,12.137 -3.415,18.269l-14.559,9.433c-0.121,1.217 -0.234,2.434 -0.338,3.653l12.577,11.947c-0.243,6.193 -0.243,12.393 0,18.586l-12.577,11.947c0.104,1.219 0.217,2.436 0.338,3.653l14.559,9.433c0.899,6.132 2.038,12.226 3.415,18.269l-10.168,14.055c0.326,1.178 0.661,2.354 1.004,3.528l16.044,6.597c2.01,5.863 4.25,11.644 6.714,17.331l-7.412,15.684c0.537,1.098 1.082,2.193 1.635,3.283l16.983,3.537c3.053,5.393 6.317,10.665 9.784,15.802l-4.404,16.779c0.729,0.981 1.466,1.957 2.21,2.927l17.344,0.356c3.992,4.741 8.169,9.323 12.521,13.735l-1.246,17.303c0.898,0.83 1.801,1.654 2.711,2.471l17.114,-2.837c4.795,3.926 9.743,7.662 14.831,11.2l1.955,17.237c1.035,0.651 2.075,1.295 3.119,1.931l16.301,-5.933c5.435,2.978 10.985,5.741 16.637,8.284l5.089,16.584c1.137,0.45 2.277,0.892 3.42,1.325l14.933,-8.827c5.89,1.928 11.854,3.625 17.877,5.086l8.049,15.367c1.2,0.233 2.402,0.458 3.606,0.674l13.057,-11.422c6.144,0.814 12.317,1.386 18.506,1.715l10.736,13.626c1.223,0.009 2.445,0.009 3.668,0l10.736,-13.626c6.189,-0.329 12.362,-0.901 18.506,-1.715l13.057,11.422c1.204,-0.216 2.406,-0.441 3.606,-0.674l8.049,-15.367c6.023,-1.461 11.987,-3.158 17.877,-5.086l14.933,8.827c1.143,-0.433 2.283,-0.875 3.42,-1.325l5.089,-16.584c5.652,-2.543 11.202,-5.306 16.637,-8.284l16.301,5.933c1.044,-0.636 2.084,-1.28 3.119,-1.931l1.955,-17.237c5.088,-3.538 10.036,-7.274 14.831,-11.2l17.114,2.837c0.91,-0.817 1.813,-1.641 2.711,-2.471l-1.246,-17.303c4.352,-4.412 8.529,-8.994 12.521,-13.735l17.344,-0.356c0.744,-0.97 1.481,-1.946 2.21,-2.927l-4.404,-16.779c3.467,-5.137 6.731,-10.409 9.784,-15.802l16.983,-3.537c0.553,-1.09 1.098,-2.185 1.635,-3.283l-7.412,-15.684c2.464,-5.687 4.704,-11.468 6.714,-17.331l16.044,-6.597c0.343,-1.174 0.678,-2.35 1.004,-3.528l-10.168,-14.055c1.377,-6.043 2.516,-12.137 3.415,-18.269l14.559,-9.433c0.121,-1.217 0.234,-2.434 0.338,-3.653l-12.577,-11.947c0.243,-6.193 0.243,-12.393 0,-18.586l12.577,-11.947c-0.104,-1.219 -0.217,-2.436 -0.338,-3.653l-14.559,-9.433c-0.899,-6.132 -2.038,-12.226 -3.415,-18.269l10.168,-14.055c-0.326,-1.178 -0.661,-2.354 -1.004,-3.528l-16.044,-6.597c-2.01,-5.863 -4.25,-11.644 -6.714,-17.331l7.412,-15.684c-0.537,-1.098 -1.082,-2.193 -1.635,-3.283l-16.983,-3.537c-3.053,-5.393 -6.317,-10.665 -9.784,-15.802l4.404,-16.779c-0.729,-0.981 -1.466,-1.957 -2.21,-2.927l-17.344,-0.356c-3.992,-4.741 -8.169,-9.323 -12.521,-13.735l1.246,-17.303c-0.898,-0.83 -1.801,-1.654 -2.711,-2.471l-17.114,2.837c-4.795,-3.926 -9.743,-7.662 -14.831,-11.2l-1.955,-17.237c-1.035,-0.651 -2.075,-1.295 -3.119,-1.931l-16.301,5.933c-5.435,-2.978 -10.985,-5.741 -16.637,-8.284l-5.089,-16.584c-1.137,-0.45 -2.277,-0.892 -3.42,-1.325l-14.933,8.827c-5.89,-1.928 -11.854,-3.625 -17.877,-5.086l-8.049,-15.367c-1.2,-0.233 -2.402,-0.458 -3.606,-0.674l-13.057,11.422c-6.144,-0.814 -12.317,-1.386 -18.506,-1.715l-10.736,-13.626ZM512,285.456c125.033,0 226.544,101.511 226.544,226.544c0,125.033 -101.511,226.544 -226.544,226.544c-125.033,0 -226.544,-101.511 -226.544,-226.544c0,-125.033 101.511,-226.544 226.544,-226.544Z" style="fill:#191919;"/><path id="52" d="M513.679,162.004c-1.119,-0.005 -2.239,-0.005 -3.358,0l-9.83,18.814c-5.67,0.197 -11.333,0.54 -16.985,1.028l-12.027,-17.492c-1.111,0.129 -2.223,0.264 -3.333,0.404l-7.491,19.862c-5.604,0.879 -11.185,1.902 -16.737,3.067l-14.047,-15.915c-1.088,0.263 -2.175,0.531 -3.261,0.804l-5.042,20.62c-5.457,1.548 -10.874,3.236 -16.245,5.062l-15.863,-14.105c-1.049,0.392 -2.095,0.789 -3.14,1.19l-2.52,21.078c-5.231,2.195 -10.405,4.523 -15.517,6.983l-17.448,-12.09c-0.993,0.515 -1.984,1.035 -2.973,1.56l0.039,21.228c-4.928,2.809 -9.784,5.744 -14.562,8.803l-18.778,-9.9c-0.924,0.632 -1.845,1.267 -2.763,1.908l2.597,21.068c-4.554,3.383 -9.02,6.882 -13.394,10.494l-19.835,-7.564c-0.841,0.738 -1.679,1.48 -2.513,2.227l5.118,20.601c-4.113,3.907 -8.125,7.919 -12.032,12.032l-20.601,-5.118c-0.747,0.834 -1.489,1.672 -2.227,2.513l7.564,19.835c-3.612,4.374 -7.111,8.84 -10.494,13.394l-21.068,-2.597c-0.641,0.918 -1.276,1.839 -1.908,2.763l9.9,18.778c-3.059,4.778 -5.994,9.634 -8.803,14.562l-21.228,-0.039c-0.525,0.989 -1.045,1.98 -1.56,2.973l12.09,17.448c-2.46,5.112 -4.788,10.286 -6.983,15.517l-21.078,2.52c-0.401,1.045 -0.798,2.091 -1.19,3.14l14.105,15.863c-1.826,5.371 -3.514,10.788 -5.062,16.245l-20.62,5.042c-0.273,1.086 -0.541,2.173 -0.804,3.261l15.915,14.047c-1.165,5.552 -2.188,11.133 -3.067,16.737l-19.862,7.491c-0.14,1.11 -0.275,2.222 -0.404,3.333l17.492,12.027c-0.488,5.652 -0.831,11.315 -1.028,16.985l-18.814,9.83c-0.005,1.119 -0.005,2.239 0,3.358l18.814,9.83c0.197,5.67 0.54,11.333 1.028,16.985l-17.492,12.027c0.129,1.111 0.264,2.223 0.404,3.333l19.862,7.491c0.879,5.604 1.902,11.185 3.067,16.737l-15.915,14.047c0.263,1.088 0.531,2.175 0.804,3.261l20.62,5.042c1.548,5.457 3.236,10.874 5.062,16.245l-14.105,15.863c0.392,1.049 0.789,2.095 1.19,3.14l21.078,2.52c2.195,5.231 4.523,10.405 6.983,15.517l-12.09,17.448c0.515,0.993 1.035,1.984 1.56,2.973l21.228,-0.039c2.809,4.928 5.744,9.784 8.803,14.562l-9.9,18.778c0.632,0.924 1.267,1.845 1.908,2.763l21.068,-2.597c3.383,4.554 6.882,9.02 10.494,13.394l-7.564,19.835c0.738,0.841 1.48,1.679 2.227,2.513l20.601,-5.118c3.907,4.113 7.919,8.125 12.032,12.032l-5.118,20.601c0.834,0.747 1.672,1.489 2.513,2.227l19.835,-7.564c4.374,3.612 8.84,7.111 13.394,10.494l-2.597,21.068c0.918,0.641 1.839,1.276 2.763,1.908l18.778,-9.9c4.778,3.059 9.634,5.994 14.562,8.803l-0.039,21.228c0.989,0.525 1.98,1.045 2.973,1.56l17.448,-12.09c5.112,2.46 10.286,4.788 15.517,6.983l2.52,21.078c1.045,0.401 2.091,0.798 3.14,1.19l15.863,-14.105c5.371,1.826 10.788,3.514 16.245,5.062l5.042,20.62c1.086,0.273 2.173,0.541 3.261,0.804l14.047,-15.915c5.552,1.165 11.133,2.188 16.737,3.067l7.491,19.862c1.11,0.14 2.222,0.275 3.333,0.404l12.027,-17.492c5.652,0.488 11.315,0.831 16.985,1.028l9.83,18.814c1.119,0.005 2.239,0.005 3.358,0l9.83,-18.814c5.67,-0.197 11.333,-0.54 16.985,-1.028l12.027,17.492c1.111,-0.129 2.223,-0.264 3.333,-0.404l7.491,-19.862c5.604,-0.879 11.185,-1.902 16.737,-3.067l14.047,15.915c1.088,-0.263 2.175,-0.531 3.261,-0.804l5.042,-20.62c5.457,-1.548 10.874,-3.236 16.245,-5.062l15.863,14.105c1.049,-0.392 2.095,-0.789 3.14,-1.19l2.52,-21.078c5.231,-2.195 10.405,-4.523 15.517,-6.983l17.448,12.09c0.993,-0.515 1.984,-1.035 2.973,-1.56l-0.039,-21.228c4.928,-2.809 9.784,-5.744 14.562,-8.803l18.778,9.9c0.924,-0.632 1.845,-1.267 2.763,-1.908l-2.597,-21.068c4.554,-3.383 9.02,-6.882 13.394,-10.494l19.835,7.564c0.841,-0.738 1.679,-1.48 2.513,-2.227l-5.118,-20.601c4.113,-3.907 8.125,-7.919 12.032,-12.032l20.601,5.118c0.747,-0.834 1.489,-1.672 2.227,-2.513l-7.564,-19.835c3.612,-4.374 7.111,-8.84 10.494,-13.394l21.068,2.597c0.641,-0.918 1.276,-1.839 1.908,-2.763l-9.9,-18.778c3.059,-4.778 5.994,-9.634 8.803,-14.562l21.228,0.039c0.525,-0.989 1.045,-1.98 1.56,-2.973l-12.09,-17.448c2.46,-5.112 4.788,-10.286 6.983,-15.517l21.078,-2.52c0.401,-1.045 0.798,-2.091 1.19,-3.14l-14.105,-15.863c1.826,-5.371 3.514,-10.788 5.062,-16.245l20.62,-5.042c0.273,-1.086 0.541,-2.173 0.804,-3.261l-15.915,-14.047c1.165,-5.552 2.188,-11.133 3.067,-16.737l19.862,-7.491c0.14,-1.11 0.275,-2.222 0.404,-3.333l-17.492,-12.027c0.488,-5.652 0.831,-11.315 1.028,-16.985l18.814,-9.83c0.005,-1.119 0.005,-2.239 0,-3.358l-18.814,-9.83c-0.197,-5.67 -0.54,-11.333 -1.028,-16.985l17.492,-12.027c-0.129,-1.111 -0.264,-2.223 -0.404,-3.333l-19.862,-7.491c-0.879,-5.604 -1.902,-11.185 -3.067,-16.737l15.915,-14.047c-0.263,-1.088 -0.531,-2.175 -0.804,-3.261l-20.62,-5.042c-1.548,-5.457 -3.236,-10.874 -5.062,-16.245l14.105,-15.863c-0.392,-1.049 -0.789,-2.095 -1.19,-3.14l-21.078,-2.52c-2.195,-5.231 -4.523,-10.405 -6.983,-15.517l12.09,-17.448c-0.515,-0.993 -1.035,-1.984 -1.56,-2.973l-21.228,0.039c-2.809,-4.928 -5.744,-9.784 -8.803,-14.562l9.9,-18.778c-0.632,-0.924 -1.267,-1.845 -1.908,-2.763l-21.068,2.597c-3.383,-4.554 -6.882,-9.02 -10.494,-13.394l7.564,-19.835c-0.738,-0.841 -1.48,-1.679 -2.227,-2.513l-20.601,5.118c-3.907,-4.113 -7.919,-8.125 -12.032,-12.032l5.118,-20.601c-0.834,-0.747 -1.672,-1.489 -2.513,-2.227l-19.835,7.564c-4.374,-3.612 -8.84,-7.111 -13.394,-10.494l2.597,-21.068c-0.918,-0.641 -1.839,-1.276 -2.763,-1.908l-18.778,9.9c-4.778,-3.059 -9.634,-5.994 -14.562,-8.803l0.039,-21.228c-0.989,-0.525 -1.98,-1.045 -2.973,-1.56l-17.448,12.09c-5.112,-2.46 -10.286,-4.788 -15.517,-6.983l-2.52,-21.078c-1.045,-0.401 -2.091,-0.798 -3.14,-1.19l-15.863,14.105c-5.371,-1.826 -10.788,-3.514 -16.245,-5.062l-5.042,-20.62c-1.086,-0.273 -2.173,-0.541 -3.261,-0.804l-14.047,15.915c-5.552,-1.165 -11.133,-2.188 -16.737,-3.067l-7.491,-19.862c-1.11,-0.14 -2.222,-0.275 -3.333,-0.404l-12.027,17.492c-5.652,-0.488 -11.315,-0.831 -16.985,-1.028l-9.83,-18.814ZM512,194.838c175.047,0 317.162,142.115 317.162,317.162c0,175.047 -142.115,317.162 -317.162,317.162c-175.047,0 -317.162,-142.115 -317.162,-317.162c0,-175.047 142.115,-317.162 317.162,-317.162Z" style="fill:#191919;"/><text x="359.577px" y="560.8px" style="font-family:Avenir;font-size:132.307px;font-weight:800;font-style:italic;fill:#000;">R<tspan x="448.525px 542.552px " y="560.8px 560.8px ">CN</tspan></text></g></svg>