<?xml version="1.0" standalone="no"?><!DOCTYPE svg PUBLIC "-//W3C//DTD SVG 1.1//EN" "http://www.w3.org/Graphics/SVG/1.1/DTD/svg11.dtd"><svg width="100%" height="100%" viewBox="0 0 1024 1024" version="1.1" xmlns="http://www.w3.org/2000/svg" xmlns:xlink="http://www.w3.org/1999/xlink" xml:space="preserve" style="fill-rule:evenodd;clip-rule:evenodd;stroke-linejoin:round;stroke-miterlimit:1.41421;"><g id="2 wheels"><path d="M-152.132,319.656l1264.17,-88.4l-21.81,-311.899l-1264.17,88.399l21.81,311.9Z" style="fill:#807d7c;"/><path d="M-83.421,1128.83l1264.17,-88.399l-21.811,-311.9l-1264.17,88.399l21.811,311.9Z" style="fill:#003775;"/><path d="M367.126,785.418c5.949,84.021 85.634,146.936 177.836,140.407c92.201,-6.528 162.226,-80.042 156.277,-164.064l-334.113,23.657Z" style="fill:#ea5b21;"/><g id="Hi profile Wheel"><g><circle cx="257.594" cy="469.593" r="10" style="fill:#000;"/><path id="Rim" d="M245.137,293.656c97.102,-6.875 181.519,66.378 188.394,163.48c6.875,97.103 -66.378,181.52 -163.48,188.395c-97.103,6.875 -181.52,-66.378 -188.395,-163.481c-6.875,-97.102 66.378,-181.519 163.481,-188.394ZM248.251,337.64c72.827,-5.156 136.14,49.784 141.296,122.611c5.156,72.827 -49.784,136.139 -122.611,141.295c-72.826,5.157 -136.139,-49.783 -141.295,-122.61c-5.157,-72.827 49.783,-136.139 122.61,-141.296Z" style="fill:#000;stroke-width:2px;stroke:#000;"/></g><g><circle cx="713.696" cy="437.136" r="10" style="fill:#000;"/><path id="Rim1" d="M701.239,261.362c97.103,-6.875 181.519,66.378 188.395,163.481c6.875,97.103 -66.379,181.519 -163.481,188.394c-97.103,6.876 -181.519,-66.378 -188.394,-163.48c-6.876,-97.103 66.378,-181.519 163.48,-188.395ZM707.468,349.331c48.551,-3.437 90.759,33.189 94.197,81.74c3.437,48.552 -33.189,90.76 -81.741,94.198c-48.551,3.437 -90.759,-33.189 -94.197,-81.741c-3.437,-48.551 33.189,-90.759 81.741,-94.197Z" style="fill:#000;stroke-width:2px;stroke:#000;"/></g></g></g></svg>