<?xml version="1.0" standalone="no"?><!DOCTYPE svg PUBLIC "-//W3C//DTD SVG 1.1//EN" "http://www.w3.org/Graphics/SVG/1.1/DTD/svg11.dtd"><svg width="100%" height="100%" viewBox="0 0 1024 1024" version="1.1" xmlns="http://www.w3.org/2000/svg" xmlns:xlink="http://www.w3.org/1999/xlink" xml:space="preserve" style="fill-rule:evenodd;clip-rule:evenodd;stroke-linejoin:round;stroke-miterlimit:1.41421;"><g id="R wariations"><g id="R wheels ideal"><clipPath id="_clip1"><rect x="347.084" y="240.872" width="218" height="320"/></clipPath><g clip-path="url(#_clip1)"><path d="M405.084,240.872c88.307,0 160,71.693 160,160c0,88.306 -71.693,160 -160,160c-88.306,0 -160,-71.694 -160,-160c0,-88.307 71.694,-160 160,-160ZM405.084,320.872c44.154,0 80,35.846 80,80c0,44.153 -35.846,80 -80,80c-44.153,0 -80,-35.847 -80,-80c0,-44.154 35.847,-80 80,-80Z" style="fill:#222;"/></g><clipPath id="_clip2"><rect x="484.986" y="240.872" width="191.688" height="320"/></clipPath><g clip-path="url(#_clip2)"><path d="M644.986,240.872c88.306,0 160,71.693 160,160c0,88.306 -71.694,160 -160,160c-88.306,0 -160,-71.694 -160,-160c0,-88.307 71.694,-160 160,-160ZM644.986,320.872c44.153,0 80,35.846 80,80c0,44.153 -35.847,80 -80,80c-44.153,0 -80,-35.847 -80,-80c0,-44.154 35.847,-80 80,-80Z" style="fill:#222;"/></g><g><path d="M347.049,480.679l0,302.385l80,0l0,-302.385l-80,0Z" style="fill:#222;"/><path d="M596.951,480.679l0,302.385l80,0l0,-302.385l-80,0Z" style="fill:#222;"/><path d="M364.41,480.679l85.284,0l209.425,302.449l-85.464,0l-209.367,-302.364l0.122,-0.085Z" style="fill:#222;"/></g></g></g></svg>