<?xml version="1.0" standalone="no"?><!DOCTYPE svg PUBLIC "-//W3C//DTD SVG 1.1//EN" "http://www.w3.org/Graphics/SVG/1.1/DTD/svg11.dtd"><svg width="100%" height="100%" viewBox="0 0 1024 1024" version="1.1" xmlns="http://www.w3.org/2000/svg" xmlns:xlink="http://www.w3.org/1999/xlink" xml:space="preserve" style="fill-rule:evenodd;clip-rule:evenodd;stroke-linejoin:round;stroke-miterlimit:1.41421;"><g id="R wariations"><g id="monogram symmetric width"><g><clipPath id="_clip1"><path d="M485.504,240.587l217.999,0.571l-0.838,319.998l-217.999,-0.57l0.838,-319.999Z"/></clipPath><g clip-path="url(#_clip1)"><path d="M645.503,241.006c-88.306,-0.232 -160.187,71.274 -160.418,159.58c-0.232,88.306 71.274,160.187 159.58,160.419c88.306,0.231 160.187,-71.275 160.419,-159.581c0.231,-88.306 -71.275,-160.187 -159.581,-160.418ZM645.294,321.005c-44.153,-0.115 -80.094,35.638 -80.21,79.791c-0.115,44.153 35.638,80.093 79.791,80.209c44.153,0.115 80.093,-35.637 80.209,-79.79c0.116,-44.153 -35.637,-80.094 -79.79,-80.21Z" style="fill:#222;"/></g></g><g><clipPath id="_clip2"><path d="M565.781,241.349l-217.998,-0.951l-1.396,319.997l217.998,0.951l1.396,-319.997Z"/></clipPath><g clip-path="url(#_clip2)"><path d="M405.783,240.651c88.305,0.385 159.686,72.391 159.3,160.696c-0.385,88.306 -72.391,159.686 -160.696,159.301c-88.306,-0.386 -159.686,-72.391 -159.301,-160.697c0.386,-88.305 72.391,-159.686 160.697,-159.3ZM405.434,320.65c44.153,0.192 79.843,36.195 79.65,80.348c-0.193,44.153 -36.195,79.843 -80.348,79.65c-44.153,-0.192 -79.843,-36.195 -79.65,-80.348c0.192,-44.153 36.195,-79.843 80.348,-79.65Z" style="fill:#222;"/></g></g><g><path d="M346.596,497.433l-1.694,302.759l86.398,-0.449l1.694,-302.758l-86.398,0.448Z" style="fill:#222;"/><path d="M616.484,496.033l-1.694,302.758l86.398,-0.448l1.694,-302.759l-86.398,0.449Z" style="fill:#222;"/><path d="M365.345,497.336l92.105,-0.478l224.48,301.649l-92.3,0.479l-224.417,-301.565l0.132,-0.085Z" style="fill:#222;"/></g></g></g></svg>