<?xml version="1.0" standalone="no"?><!DOCTYPE svg PUBLIC "-//W3C//DTD SVG 1.1//EN" "http://www.w3.org/Graphics/SVG/1.1/DTD/svg11.dtd"><svg width="100%" height="100%" viewBox="0 0 1024 1024" version="1.1" xmlns="http://www.w3.org/2000/svg" xmlns:xlink="http://www.w3.org/1999/xlink" xml:space="preserve" style="fill-rule:evenodd;clip-rule:evenodd;stroke-linejoin:round;stroke-miterlimit:1.41421;"><g id="R wheels ideal"><path id="Rim" d="M677,511c82.787,0 150,67.213 150,150c0,82.787 -67.213,150 -150,150c-82.787,0 -150,-67.213 -150,-150c0,-82.787 67.213,-150 150,-150ZM677,565c52.984,0 96,43.016 96,96c0,52.984 -43.016,96 -96,96c-52.984,0 -96,-43.016 -96,-96c0,-52.984 43.016,-96 96,-96Z" style="fill:#222;"/><path id="Rim1" d="M347,811c82.787,0 150,-67.213 150,-150c0,-82.787 -67.213,-150 -150,-150c-82.787,0 -150,67.213 -150,150c0,82.787 67.213,150 150,150ZM347,757c52.984,0 96,-43.016 96,-96c0,-52.984 -43.016,-96 -96,-96c-52.984,0 -96,43.016 -96,96c0,52.984 43.016,96 96,96Z" style="fill:#222;"/><g><clipPath id="_clip1"><rect id="Rim2" x="507" y="213" width="150" height="300"/></clipPath><g clip-path="url(#_clip1)"><path d="M507,213c82.787,0 150,67.213 150,150c0,82.787 -67.213,150 -150,150c-82.787,0 -150,-67.213 -150,-150c0,-82.787 67.213,-150 150,-150ZM507,267c52.984,0 96,43.016 96,96c0,52.984 -43.016,96 -96,96c-52.984,0 -96,-43.016 -96,-96c0,-52.984 43.016,-96 96,-96Z" style="fill:#222;"/></g><path d="M616.053,645.353c10.162,10.091 23.917,15.732 38.238,15.681c14.321,-0.05 28.036,-5.787 38.127,-15.949c0.001,-0.001 0.001,-0.001 0.001,-0.001l-185.91,-184.612l-38.05,38.317c0,0 93.169,92.518 147.594,146.564Z" style="fill:#222;"/><path d="M369,213c0,0 0,0 0,0c-29.823,0 -54,24.177 -54,54c0,119.133 0,394 0,394c0,0 0.001,0 0.002,0c29.822,0 53.998,-24.176 53.998,-53.998c0,-119.132 0,-394.002 0,-394.002Z" style="fill:#222;"/><path d="M507,267l0,-54c0,0 -81.211,0 -138,0c-29.823,0 -54,24.177 -54,54c0,0 0,0 0,0l192,0Z" style="fill:#222;"/><path d="M507,513l0,-54l-192,0l0,54l192,0Z" style="fill:#222;"/></g></g></svg>