<?xml version="1.0" standalone="no"?><!DOCTYPE svg PUBLIC "-//W3C//DTD SVG 1.1//EN" "http://www.w3.org/Graphics/SVG/1.1/DTD/svg11.dtd"><svg width="100%" height="100%" viewBox="0 0 2731 2731" version="1.1" xmlns="http://www.w3.org/2000/svg" xmlns:xlink="http://www.w3.org/1999/xlink" xml:space="preserve" style="fill-rule:evenodd;clip-rule:evenodd;stroke-linejoin:round;stroke-miterlimit:1.41421;"><g id="Hi profile Wheel"><g><g id="n"><rect x="1365.33" y="1365.33" width="170.667" height="341.333" style="fill:#222;"/><rect x="1877.33" y="1365.33" width="170.667" height="341.333" style="fill:#222;"/><path d="M1877.33,1365.33l170.667,0c-0.136,-188.439 -152.894,-341.197 -341.333,-341.333l0,170.667c94.314,0.121 170.666,76.548 170.666,170.666l0,0Z" style="fill:#222;"/><path d="M1536,1365.33l-170.667,0c0.137,-188.439 152.894,-341.197 341.334,-341.333l0,170.667c-94.315,0.121 -170.667,76.548 -170.667,170.666l0,0Z" style="fill:#222;"/></g><path id="c" d="M1365.33,1536l0,170.667c-188.523,-0.137 -341.333,-153.031 -341.333,-341.334c0,-188.387 152.946,-341.333 341.333,-341.333c0,0 0,170.667 0,170.667c-94.193,0 -170.666,76.473 -170.666,170.666c0,94.194 76.473,170.667 170.666,170.667l0,0Z" style="fill:#222;"/><g id="r"><rect x="682.667" y="1365.33" width="170.667" height="341.333" style="fill:#222;"/><path d="M853.333,1365.33l-170.666,0c0.136,-188.439 152.894,-341.197 341.333,-341.333l0,170.667c-94.315,0.121 -170.667,76.548 -170.667,170.666l0,0Z" style="fill:#222;"/></g><path d="M1024,1024l0,170.667l341.333,0l0,-170.667l-341.333,0Z" style="fill:#222;"/><path d="M1365.33,1024l0,170.667l341.334,0l0,-170.667l-341.334,0Z" style="fill:#222;"/></g></g></svg>