<?xml version="1.0" standalone="no"?><!DOCTYPE svg PUBLIC "-//W3C//DTD SVG 1.1//EN" "http://www.w3.org/Graphics/SVG/1.1/DTD/svg11.dtd"><svg width="100%" height="100%" viewBox="0 0 1024 1024" version="1.1" xmlns="http://www.w3.org/2000/svg" xmlns:xlink="http://www.w3.org/1999/xlink" xml:space="preserve" style="fill-rule:evenodd;clip-rule:evenodd;stroke-linejoin:round;stroke-miterlimit:1.41421;"><g id="Circles"><path d="M472,155.467c-0.01,-22.077 17.906,-40.008 39.983,-40.017c22.076,-0.01 40.007,17.906 40.017,39.982c0.01,22.077 -17.906,40.008 -39.983,40.018c-22.076,0.009 -40.007,-17.907 -40.017,-39.983Z" style="fill:#000;stroke-width:7px;stroke:#000;"/><path d="M452.173,757.882c-0.009,-22.077 17.906,-40.008 39.983,-40.017c22.077,-0.01 40.008,17.906 40.017,39.982c0.01,22.077 -17.906,40.008 -39.982,40.018c-22.077,0.009 -40.008,-17.906 -40.018,-39.983Z" style="fill:#000;stroke-width:7px;stroke:#000;"/><path d="M367.175,671.323c10.72,-19.3 35.092,-26.265 54.391,-15.545c19.299,10.72 26.265,35.091 15.545,54.391c-10.72,19.299 -35.092,26.264 -54.391,15.545c-19.299,-10.72 -26.265,-35.092 -15.545,-54.391Z" style="fill:#000;stroke-width:7px;stroke:#000;"/><path d="M407.537,524.225c10.719,-19.299 35.091,-26.265 54.39,-15.545c19.3,10.72 26.265,35.092 15.545,54.391c-10.72,19.299 -35.091,26.265 -54.39,15.545c-19.3,-10.72 -26.265,-35.092 -15.545,-54.391Z" style="fill:#000;stroke-width:7px;stroke:#000;"/><path d="M512.045,583.619c10.72,-19.299 35.092,-26.265 54.391,-15.545c19.299,10.72 26.265,35.092 15.545,54.391c-10.72,19.299 -35.092,26.265 -54.391,15.545c-19.299,-10.72 -26.265,-35.092 -15.545,-54.391Z" style="fill:#000;stroke-width:7px;stroke:#000;"/><path d="M452.173,757.882c-0.009,-22.077 17.906,-40.008 39.983,-40.017c22.077,-0.01 40.008,17.906 40.017,39.982c0.01,22.077 -17.906,40.008 -39.982,40.018c-22.077,0.009 -40.008,-17.906 -40.018,-39.983Z" style="fill:#000;stroke-width:7px;stroke:#000;"/><path d="M587.044,671.228c10.72,-19.3 35.091,-26.265 54.391,-15.545c19.299,10.72 26.264,35.091 15.545,54.391c-10.72,19.299 -35.092,26.264 -54.391,15.544c-19.3,-10.719 -26.265,-35.091 -15.545,-54.39Z" style="fill:#000;stroke-width:7px;stroke:#000;"/><path d="M386.687,841.191c10.719,-19.3 35.091,-26.265 54.39,-15.545c19.3,10.72 26.265,35.091 15.545,54.391c-10.72,19.299 -35.091,26.264 -54.391,15.544c-19.299,-10.719 -26.264,-35.091 -15.544,-54.39Z" style="fill:#000;stroke-width:7px;stroke:#000;"/><path d="M506.945,449.221c10.72,-19.299 35.092,-26.265 54.391,-15.545c19.299,10.72 26.265,35.092 15.545,54.391c-10.72,19.299 -35.092,26.265 -54.391,15.545c-19.299,-10.72 -26.265,-35.092 -15.545,-54.391Z" style="fill:#000;stroke-width:7px;stroke:#000;"/></g></svg>