<?xml version="1.0" standalone="no"?><!DOCTYPE svg PUBLIC "-//W3C//DTD SVG 1.1//EN" "http://www.w3.org/Graphics/SVG/1.1/DTD/svg11.dtd"><svg width="100%" height="100%" viewBox="0 0 1024 1024" version="1.1" xmlns="http://www.w3.org/2000/svg" xmlns:xlink="http://www.w3.org/1999/xlink" xml:space="preserve" style="fill-rule:evenodd;clip-rule:evenodd;stroke-linejoin:round;stroke-miterlimit:1.41421;"><g id="Wheel and fork"><g><path d="M267.686,402.442c136.917,-17.087 261.948,80.201 279.034,217.117c17.086,136.917 -80.201,261.948 -217.118,279.034c-136.916,17.087 -261.947,-80.2 -279.034,-217.117c-17.086,-136.917 80.201,-261.948 217.118,-279.034ZM278.521,489.268c88.996,-11.106 170.266,52.131 181.372,141.127c11.106,88.996 -52.13,170.266 -141.126,181.372c-88.996,11.106 -170.266,-52.131 -181.372,-141.127c-11.106,-88.995 52.13,-170.266 141.126,-181.372Z" style="fill:#000;"/><g><path d="M296.783,651.758l-208.131,-463.498" style="fill:#989898;stroke-width:39px;stroke:#f44;"/><g><clipPath id="_clip1"><path d="M333.91,96.5l-237.995,29.7l26.896,215.519l237.994,-29.7l-26.895,-215.519Z"/></clipPath><g clip-path="url(#_clip1)"><clipPath id="_clip2"><path d="M125.646,145.812l7.74,57.319l62.716,-8.47l-7.741,-57.318l-62.715,8.469Z"/></clipPath><g clip-path="url(#_clip2)"><path d="M254.396,128.425l-112.365,56.594" style="fill:#989898;stroke-width:31px;stroke:#f44;"/></g><clipPath id="_clip3"><path d="M271.849,99.933l-94.206,44.487l84.935,179.857l94.205,-44.486l-84.934,-179.858Z"/></clipPath><g clip-path="url(#_clip3)"><path d="M184.597,146.115c49.216,-23.241 107.772,-2.727 130.68,45.783c22.908,48.509 1.549,106.762 -47.668,130.004c-49.217,23.241 -107.773,2.727 -130.681,-45.783c-22.907,-48.509 -1.548,-106.762 47.669,-130.004ZM197.754,173.978c33.615,-15.875 73.609,-1.863 89.255,31.269c15.646,33.132 1.058,72.918 -32.557,88.792c-33.615,15.875 -73.609,1.863 -89.255,-31.269c-15.646,-33.132 -1.058,-72.918 32.557,-88.792Z" style="fill:#f44;"/></g></g></g></g></g><g id="Wheel and fork1"><path d="M756.314,402.442c-136.917,-17.087 -261.948,80.201 -279.034,217.117c-17.086,136.917 80.201,261.948 217.118,279.034c136.916,17.087 261.947,-80.2 279.034,-217.117c17.086,-136.917 -80.201,-261.948 -217.118,-279.034ZM745.479,489.268c-88.996,-11.106 -170.266,52.131 -181.372,141.127c-11.106,88.996 52.13,170.266 141.126,181.372c88.996,11.106 170.266,-52.131 181.372,-141.127c11.106,-88.995 -52.13,-170.266 -141.126,-181.372Z" style="fill:#000;"/><g><path d="M727.217,651.758l208.131,-463.498" style="fill:#989898;stroke-width:39px;stroke:#f44;"/><g><clipPath id="_clip4"><path d="M690.09,96.5l237.995,29.7l-26.896,215.519l-237.994,-29.7l26.895,-215.519Z"/></clipPath><g clip-path="url(#_clip4)"><clipPath id="_clip5"><path d="M898.354,145.812l-7.74,57.319l-62.716,-8.47l7.741,-57.318l62.715,8.469Z"/></clipPath><g clip-path="url(#_clip5)"><path d="M769.604,128.425l112.365,56.594" style="fill:#989898;stroke-width:31px;stroke:#f44;"/></g><clipPath id="_clip6"><path d="M752.151,99.933l94.206,44.487l-84.935,179.857l-94.205,-44.486l84.934,-179.858Z"/></clipPath><g clip-path="url(#_clip6)"><path d="M839.403,146.115c-49.216,-23.241 -107.772,-2.727 -130.68,45.783c-22.908,48.509 -1.549,106.762 47.668,130.004c49.217,23.241 107.773,2.727 130.681,-45.783c22.907,-48.509 1.548,-106.762 -47.669,-130.004ZM826.246,173.978c-33.615,-15.875 -73.609,-1.863 -89.255,31.269c-15.646,33.132 -1.058,72.918 32.557,88.792c33.615,15.875 73.609,1.863 89.255,-31.269c15.646,-33.132 1.058,-72.918 -32.557,-88.792Z" style="fill:#f44;"/></g></g></g></g></g></g></svg>