<?xml version="1.0" standalone="no"?><!DOCTYPE svg PUBLIC "-//W3C//DTD SVG 1.1//EN" "http://www.w3.org/Graphics/SVG/1.1/DTD/svg11.dtd"><svg width="100%" height="100%" viewBox="0 0 1024 1024" version="1.1" xmlns="http://www.w3.org/2000/svg" xmlns:xlink="http://www.w3.org/1999/xlink" xml:space="preserve" style="fill-rule:evenodd;clip-rule:evenodd;stroke-linejoin:round;stroke-miterlimit:1.41421;"><g id="Wheel and fork"><path d="M512,402.289c137.979,0 250,112.021 250,250c0,137.978 -112.021,250 -250,250c-137.979,0 -250,-112.022 -250,-250c0,-137.979 112.021,-250 250,-250ZM512,489.789c89.686,0 162.5,72.813 162.5,162.5c0,89.686 -72.814,162.5 -162.5,162.5c-89.686,0 -162.5,-72.814 -162.5,-162.5c0,-89.687 72.814,-162.5 162.5,-162.5Z" style="fill:#000;"/><path d="M512,652.289l-149.133,-485.703" style="fill:#000;stroke-width:42px;stroke:#989898;"/><g><clipPath id="_clip1"><rect x="375.759" y="106.902" width="239.841" height="217.191"/></clipPath><g clip-path="url(#_clip1)"><clipPath id="_clip2"><path d="M402.832,130.045l0.584,57.836l63.281,-0.638l-0.583,-57.836l-63.282,0.638Z"/></clipPath><g clip-path="url(#_clip2)"><path d="M532.745,128.735l-118.509,42.244" style="fill:#000;stroke-width:31px;stroke:#989898;"/></g><clipPath id="_clip3"><path d="M553.591,102.624l-98.989,32.479l62.009,188.99l98.989,-32.478l-62.009,-188.991Z"/></clipPath><g clip-path="url(#_clip3)"><path d="M461.292,137.646c51.716,-16.968 107.281,10.639 124.005,61.612c16.725,50.973 -11.684,106.133 -63.4,123.101c-51.716,16.968 -107.281,-10.64 -124.005,-61.613c-16.724,-50.972 11.684,-106.132 63.4,-123.1ZM470.898,166.923c35.322,-11.589 73.273,7.267 84.696,42.081c11.422,34.815 -7.981,72.489 -43.303,84.078c-35.322,11.589 -73.272,-7.267 -84.695,-42.081c-11.423,-34.815 7.98,-72.489 43.302,-84.078Z" style="fill:#989898;"/></g></g></g></g></svg>