<?xml version="1.0" standalone="no"?>
<!DOCTYPE svg PUBLIC "-//W3C//DTD SVG 20010904//EN"
 "http://www.w3.org/TR/2001/REC-SVG-20010904/DTD/svg10.dtd">
<svg version="1.0" xmlns="http://www.w3.org/2000/svg"
 width="1024.000000pt" height="1024.000000pt" viewBox="0 0 1024.000000 1024.000000"
 preserveAspectRatio="xMidYMid meet">
<metadata>
Created by potrace 1.11, written by Peter Selinger 2001-2013
</metadata>
<g transform="translate(0.000000,1024.000000) scale(0.100000,-0.100000)"
fill="#000000" stroke="none">
<path d="M2790 10033 c-42 -4 -267 -34 -295 -39 -11 -2 -33 -7 -48 -9 -117
-22 -432 -116 -452 -136 -9 -9 -16 -1649 -7 -1649 2 0 28 24 59 53 187 178
485 324 743 363 91 13 344 13 425 -1 125 -22 135 -24 230 -56 498 -164 867
-596 952 -1114 10 -63 9 -385 -1 -445 -96 -557 -505 -1002 -1049 -1141 -43
-11 -102 -22 -130 -25 -29 -3 -55 -8 -59 -11 -10 -6 -276 -5 -308 2 -14 2 -41
7 -60 9 -245 32 -534 169 -725 344 -22 20 -49 45 -61 54 l-20 18 0 -3023 1
-3022 760 -3 760 -2 0 1865 c0 1026 3 1865 7 1865 4 0 15 -12 25 -28 10 -15
20 -29 23 -32 3 -3 614 -817 1359 -1810 744 -993 1361 -1812 1371 -1820 15
-14 124 -16 985 -14 665 1 969 4 974 12 5 8 7 4398 2 5661 l-1 354 -57 -54
c-109 -103 -236 -189 -374 -253 -74 -34 -244 -90 -304 -101 -16 -2 -41 -7 -55
-10 -37 -7 -180 -20 -215 -18 -16 0 -57 2 -90 3 -113 4 -306 42 -410 82 -292
111 -563 335 -719 595 -79 133 -164 354 -180 469 -2 16 -8 54 -12 84 -13 95
-8 309 11 415 94 545 508 988 1050 1124 44 11 98 23 120 26 69 12 347 14 410
3 94 -16 244 -55 314 -82 75 -30 255 -124 259 -137 2 -5 8 -9 14 -9 13 0 115
-79 179 -140 l54 -51 3 822 c2 652 0 824 -10 831 -28 17 -307 104 -363 113
-11 1 -38 7 -60 13 -65 17 -204 38 -325 49 -147 15 -531 8 -625 -11 -11 -2
-45 -7 -75 -11 -236 -30 -605 -150 -834 -270 -126 -66 -278 -157 -346 -207
-125 -93 -266 -212 -369 -315 l-125 -124 -85 89 c-170 175 -353 323 -557 447
-115 71 -382 205 -408 205 -8 0 -17 4 -20 9 -3 5 -17 12 -30 15 -14 3 -38 11
-53 18 -15 6 -30 12 -33 13 -3 0 -36 11 -75 24 -38 13 -77 24 -85 26 -8 2 -60
14 -115 28 -55 14 -122 28 -150 33 -27 4 -52 8 -55 9 -3 0 -34 5 -70 9 -36 4
-74 10 -85 13 -24 5 -455 11 -505 6z m2398 -4746 c340 -370 886 -689 1367
-798 28 -6 55 -12 60 -13 6 -1 35 -8 66 -15 l57 -12 0 -1320 c1 -1128 -1
-1317 -13 -1305 -8 7 -154 200 -324 427 -171 228 -314 419 -318 424 -5 6 -69
91 -143 190 -74 99 -139 185 -143 190 -52 63 -1317 1757 -1317 1762 1 5 49 40
108 80 146 98 286 214 417 348 123 125 110 122 183 42z"/>
</g>
</svg>
