<?xml version="1.0" encoding="UTF-8" standalone="no"?>
<svg width="1419px" height="381px" viewBox="0 0 1419 381" version="1.1" xmlns="http://www.w3.org/2000/svg" xmlns:xlink="http://www.w3.org/1999/xlink">
    <!-- Generator: Sketch 3.8.3 (29802) - http://www.bohemiancoding.com/sketch -->
    <title>Slice 2</title>
    <desc>Created with Sketch.</desc>
    <defs></defs>
    <g id="Page-1" stroke="none" stroke-width="1" fill="none" fill-rule="evenodd">
        <path d="M185.884112,2.84217094e-14 L299.999991,113.935059 L300,361.002197 C299.989538,372.046678 291.03381,381 280.001524,381 L20.3214941,381 C9.2871022,381 0.333483022,372.050595 0.323017682,361.002197 L9.15154496e-06,19.9978033 C-0.0104524786,8.95332153 8.94986681,2.84217094e-14 20.0087285,2.84217094e-14 L185.884112,2.84217094e-14 Z" id="Rectangle-1" fill="#0F9D57"></path>
        <polygon id="Triangle-1" fill="#0B7641" transform="translate(243.000000, 171.000000) scale(1, -1) translate(-243.000000, -171.000000) " points="300 114 300 228 186 228"></polygon>
        <polygon id="Triangle-1" fill="#7EC9A7" transform="translate(243.000000, 57.000000) scale(-1, 1) translate(-243.000000, -57.000000) " points="300 0 300 114 186 114"></polygon>
        <g id="Gear_icon" transform="translate(54.000000, 160.000000)" fill="#FFFFFF">
            <g id="Layer_1">
                <path d="M189,111.521739 L189,77.4782609 L167.7375,73.9565217 C166.55625,69.2608696 164.19375,64.5652174 160.65,57.5217391 L173.64375,39.9130435 L148.8375,15.2608696 L131.11875,28.173913 C125.2125,24.6521739 119.30625,22.3043478 114.58125,21.1304348 L112.21875,0 L77.9625,0 L74.41875,21.1304348 C68.5125,22.3043478 63.7875,24.6521739 57.88125,28.173913 L40.1625,15.2608696 L15.35625,39.9130435 L27.16875,57.5217391 C23.625,63.3913043 22.44375,68.0869565 20.08125,73.9565217 L0,76.3043478 L0,110.347826 L21.2625,113.869565 C22.44375,119.73913 24.80625,124.434783 28.35,130.304348 L16.5375,147.913043 L41.34375,172.565217 L59.0625,160.826087 C63.7875,163.173913 69.69375,165.521739 75.6,167.869565 L79.14375,189 L114.58125,189 L118.125,167.869565 C124.03125,166.695652 128.75625,164.347826 134.6625,160.826087 L152.38125,173.73913 L177.1875,149.086957 L164.19375,131.478261 C167.7375,125.608696 170.1,119.73913 171.28125,115.043478 L189,111.521739 L189,111.521739 Z M94.5,129.130435 C74.41875,129.130435 59.0625,113.869565 59.0625,93.9130435 C59.0625,73.9565217 74.41875,58.6956522 94.5,58.6956522 C114.58125,58.6956522 129.9375,73.9565217 129.9375,93.9130435 C129.9375,113.869565 114.58125,129.130435 94.5,129.130435 L94.5,129.130435 Z" id="Shape"></path>
            </g>
        </g>
        <path d="M513.975,132.85 C512.474993,135.250012 510.900008,137.049994 509.25,138.25 C507.599992,139.450006 505.475013,140.05 502.875,140.05 C500.574989,140.05 498.100013,139.325007 495.45,137.875 C492.799987,136.424993 489.800017,134.800009 486.45,133 C483.099983,131.199991 479.275022,129.575007 474.975,128.125 C470.674979,126.674993 465.775028,125.95 460.275,125.95 C450.774953,125.95 443.700023,127.97498 439.05,132.025 C434.399977,136.07502 432.075,141.549965 432.075,148.45 C432.075,152.850022 433.474986,156.499986 436.275,159.4 C439.075014,162.300015 442.749977,164.79999 447.3,166.9 C451.850023,169.000011 457.049971,170.924991 462.9,172.675 C468.750029,174.425009 474.72497,176.374989 480.825,178.525 C486.925031,180.675011 492.899971,183.199985 498.75,186.1 C504.600029,189.000014 509.799977,192.699977 514.35,197.2 C518.900023,201.700022 522.574986,207.174968 525.375,213.625 C528.175014,220.075032 529.575,227.849954 529.575,236.95 C529.575,247.05005 527.825018,256.499956 524.325,265.3 C520.824983,274.100044 515.750033,281.774967 509.1,288.325 C502.449967,294.875033 494.250049,300.024981 484.5,303.775 C474.749951,307.525019 463.675062,309.4 451.275,309.4 C444.474966,309.4 437.550035,308.700007 430.5,307.3 C423.449965,305.899993 416.625033,303.925013 410.025,301.375 C403.424967,298.824987 397.225029,295.800017 391.425,292.3 C385.624971,288.799982 380.575022,284.900021 376.275,280.6 L391.275,256.9 C392.475006,255.199992 394.04999,253.775006 396,252.625 C397.95001,251.474994 400.074989,250.9 402.375,250.9 C405.375015,250.9 408.399985,251.84999 411.45,253.75 C414.500015,255.65001 417.949981,257.749988 421.8,260.05 C425.650019,262.350011 430.074975,264.449991 435.075,266.35 C440.075025,268.25001 445.974966,269.2 452.775,269.2 C461.975046,269.2 469.124975,267.17502 474.225,263.125 C479.325026,259.07498 481.875,252.650044 481.875,243.85 C481.875,238.749975 480.475014,234.600016 477.675,231.4 C474.874986,228.199984 471.200023,225.550011 466.65,223.45 C462.099977,221.349989 456.925029,219.500008 451.125,217.9 C445.324971,216.299992 439.375031,214.52501 433.275,212.575 C427.17497,210.62499 421.225029,208.225014 415.425,205.375 C409.624971,202.524986 404.450023,198.775023 399.9,194.125 C395.349977,189.474977 391.675014,183.675035 388.875,176.725 C386.074986,169.774965 384.675,161.200051 384.675,151 C384.675,142.799959 386.324984,134.800039 389.625,127 C392.925017,119.199961 397.774968,112.250031 404.175,106.15 C410.575032,100.04997 418.424954,95.1750182 427.725,91.525 C437.025047,87.8749818 447.67494,86.05 459.675,86.05 C466.375034,86.05 472.899968,86.5749948 479.25,87.625 C485.600032,88.6750052 491.624972,90.2249898 497.325,92.275 C503.025029,94.3250102 508.349975,96.7749857 513.3,99.625 C518.250025,102.475014 522.674981,105.699982 526.575,109.3 L513.975,132.85 Z M593.875,165.1 C599.475028,160.299976 605.549967,156.425015 612.1,153.475 C618.650033,150.524985 626.474954,149.05 635.575,149.05 C644.075043,149.05 651.599967,150.524985 658.15,153.475 C664.700033,156.425015 670.224978,160.524974 674.725,165.775 C679.225023,171.025026 682.624988,177.274964 684.925,184.525 C687.225011,191.775036 688.375,199.649957 688.375,208.15 L688.375,307 L641.875,307 L641.875,208.15 C641.875,200.549962 640.125018,194.625021 636.625,190.375 C633.124982,186.124979 627.975034,184 621.175,184 C616.074975,184 611.300022,185.074989 606.85,187.225 C602.399978,189.375011 598.075021,192.299982 593.875,196 L593.875,307 L547.375,307 L547.375,82.45 L593.875,82.45 L593.875,165.1 Z M810.125,210.55 C810.125,206.849982 809.650005,203.250018 808.7,199.75 C807.749995,196.249982 806.200011,193.125014 804.05,190.375 C801.899989,187.624986 799.075018,185.400009 795.575,183.7 C792.074983,181.999992 787.825025,181.15 782.825,181.15 C774.024956,181.15 767.125025,183.674975 762.125,188.725 C757.124975,193.775025 753.825008,201.049953 752.225,210.55 L810.125,210.55 Z M751.625,237.55 C753.125008,250.550065 757.074968,259.974971 763.475,265.825 C769.875032,271.675029 778.124949,274.6 788.225,274.6 C793.625027,274.6 798.27498,273.950006 802.175,272.65 C806.07502,271.349993 809.549985,269.900008 812.6,268.3 C815.650015,266.699992 818.449987,265.250007 821,263.95 C823.550013,262.649993 826.224986,262 829.025,262 C832.725019,262 835.52499,263.349986 837.425,266.05 L850.925,282.7 C846.124976,288.200028 840.950028,292.674983 835.4,296.125 C829.849972,299.575017 824.150029,302.27499 818.3,304.225 C812.449971,306.17501 806.600029,307.524996 800.75,308.275 C794.899971,309.025004 789.325026,309.4 784.025,309.4 C773.124945,309.4 762.900048,307.625018 753.35,304.075 C743.799952,300.524982 735.450036,295.250035 728.3,288.25 C721.149964,281.249965 715.500021,272.550052 711.35,262.15 C707.199979,251.749948 705.125,239.650069 705.125,225.85 C705.125,215.449948 706.899982,205.600047 710.45,196.3 C714.000018,186.999954 719.099967,178.850035 725.75,171.85 C732.400033,164.849965 740.449953,159.30002 749.9,155.2 C759.350047,151.09998 770.02494,149.05 781.925,149.05 C792.225052,149.05 801.649957,150.649984 810.2,153.85 C818.750043,157.050016 826.099969,161.69997 832.25,167.8 C838.400031,173.900031 843.199983,181.374956 846.65,190.225 C850.100017,199.075044 851.825,209.099944 851.825,220.3 C851.825,223.800017 851.675002,226.649989 851.375,228.85 C851.074998,231.050011 850.525004,232.799994 849.725,234.1 C848.924996,235.400007 847.850007,236.299997 846.5,236.8 C845.149993,237.300003 843.42501,237.55 841.325,237.55 L751.625,237.55 Z M966.825,210.55 C966.825,206.849982 966.350005,203.250018 965.4,199.75 C964.449995,196.249982 962.900011,193.125014 960.75,190.375 C958.599989,187.624986 955.775017,185.400009 952.275,183.7 C948.774982,181.999992 944.525025,181.15 939.525,181.15 C930.724956,181.15 923.825025,183.674975 918.825,188.725 C913.824975,193.775025 910.525008,201.049953 908.925,210.55 L966.825,210.55 Z M908.325,237.55 C909.825008,250.550065 913.774968,259.974971 920.175,265.825 C926.575032,271.675029 934.82495,274.6 944.925,274.6 C950.325027,274.6 954.97498,273.950006 958.875,272.65 C962.77502,271.349993 966.249985,269.900008 969.3,268.3 C972.350015,266.699992 975.149987,265.250007 977.7,263.95 C980.250013,262.649993 982.924986,262 985.725,262 C989.425018,262 992.22499,263.349986 994.125,266.05 L1007.625,282.7 C1002.82498,288.200028 997.650028,292.674983 992.1,296.125 C986.549972,299.575017 980.850029,302.27499 975,304.225 C969.149971,306.17501 963.300029,307.524996 957.45,308.275 C951.599971,309.025004 946.025026,309.4 940.725,309.4 C929.824946,309.4 919.600048,307.625018 910.05,304.075 C900.499952,300.524982 892.150036,295.250035 885,288.25 C877.849964,281.249965 872.200021,272.550052 868.05,262.15 C863.899979,251.749948 861.825,239.650069 861.825,225.85 C861.825,215.449948 863.599982,205.600047 867.15,196.3 C870.700018,186.999954 875.799967,178.850035 882.45,171.85 C889.100033,164.849965 897.149953,159.30002 906.6,155.2 C916.050047,151.09998 926.724941,149.05 938.625,149.05 C948.925052,149.05 958.349957,150.649984 966.9,153.85 C975.450043,157.050016 982.799969,161.69997 988.95,167.8 C995.100031,173.900031 999.899983,181.374956 1003.35,190.225 C1006.80002,199.075044 1008.525,209.099944 1008.525,220.3 C1008.525,223.800017 1008.375,226.649989 1008.075,228.85 C1007.775,231.050011 1007.225,232.799994 1006.425,234.1 C1005.625,235.400007 1004.55001,236.299997 1003.2,236.8 C1001.84999,237.300003 1000.12501,237.55 998.025,237.55 L908.325,237.55 Z M1080.475,309.4 C1073.07496,309.4 1066.55003,308.325011 1060.9,306.175 C1055.24997,304.024989 1050.50002,300.97502 1046.65,297.025 C1042.79998,293.07498 1039.87501,288.300028 1037.875,282.7 C1035.87499,277.099972 1034.875,270.850034 1034.875,263.95 L1034.875,183.55 L1021.675,183.55 C1019.27499,183.55 1017.22501,182.775008 1015.525,181.225 C1013.82499,179.674992 1012.975,177.400015 1012.975,174.4 L1012.975,156.25 L1037.725,151.45 L1046.875,113.5 C1048.07501,108.699976 1051.47497,106.3 1057.075,106.3 L1081.375,106.3 L1081.375,151.75 L1119.925,151.75 L1119.925,183.55 L1081.375,183.55 L1081.375,260.8 C1081.375,264.400018 1082.24999,267.374988 1084,269.725 C1085.75001,272.075012 1088.27498,273.25 1091.575,273.25 C1093.27501,273.25 1094.69999,273.075002 1095.85,272.725 C1097.00001,272.374998 1098,271.975002 1098.85,271.525 C1099.7,271.074998 1100.5,270.675002 1101.25,270.325 C1102,269.974998 1102.87499,269.8 1103.875,269.8 C1105.27501,269.8 1106.4,270.124997 1107.25,270.775 C1108.1,271.425003 1108.975,272.449993 1109.875,273.85 L1123.975,295.9 C1117.97497,300.400022 1111.22504,303.774989 1103.725,306.025 C1096.22496,308.275011 1088.47504,309.4 1080.475,309.4 L1080.475,309.4 Z M1233.875,185.5 C1232.67499,187.40001 1231.40001,188.749996 1230.05,189.55 C1228.69999,190.350004 1226.97501,190.75 1224.875,190.75 C1222.67499,190.75 1220.47501,190.275005 1218.275,189.325 C1216.07499,188.374995 1213.70001,187.350006 1211.15,186.25 C1208.59999,185.149995 1205.72502,184.125005 1202.525,183.175 C1199.32498,182.224995 1195.67502,181.75 1191.575,181.75 C1185.67497,181.75 1181.15002,182.874989 1178,185.125 C1174.84998,187.375011 1173.275,190.49998 1173.275,194.5 C1173.275,197.400015 1174.29999,199.799991 1176.35,201.7 C1178.40001,203.600009 1181.12498,205.274993 1184.525,206.725 C1187.92502,208.175007 1191.77498,209.549994 1196.075,210.85 C1200.37502,212.150007 1204.77498,213.599992 1209.275,215.2 C1213.77502,216.800008 1218.17498,218.674989 1222.475,220.825 C1226.77502,222.975011 1230.62498,225.624984 1234.025,228.775 C1237.42502,231.925016 1240.14999,235.749977 1242.2,240.25 C1244.25001,244.750023 1245.275,250.149968 1245.275,256.45 C1245.275,264.150038 1243.87501,271.249968 1241.075,277.75 C1238.27499,284.250032 1234.10003,289.849977 1228.55,294.55 C1222.99997,299.250023 1216.15004,302.899987 1208,305.5 C1199.84996,308.100013 1190.47505,309.4 1179.875,309.4 C1174.57497,309.4 1169.27503,308.900005 1163.975,307.9 C1158.67497,306.899995 1153.55002,305.550008 1148.6,303.85 C1143.64998,302.149991 1139.07502,300.125012 1134.875,297.775 C1130.67498,295.424988 1127.07501,292.900014 1124.075,290.2 L1134.875,273.1 C1136.07501,271.09999 1137.59999,269.525006 1139.45,268.375 C1141.30001,267.224994 1143.67499,266.65 1146.575,266.65 C1149.27501,266.65 1151.69999,267.249994 1153.85,268.45 C1156.00001,269.650006 1158.32499,270.949993 1160.825,272.35 C1163.32501,273.750007 1166.24998,275.049994 1169.6,276.25 C1172.95002,277.450006 1177.17497,278.05 1182.275,278.05 C1185.87502,278.05 1188.92499,277.675004 1191.425,276.925 C1193.92501,276.174996 1195.92499,275.150007 1197.425,273.85 C1198.92501,272.549994 1200.025,271.100008 1200.725,269.5 C1201.425,267.899992 1201.775,266.250009 1201.775,264.55 C1201.775,261.449985 1200.72501,258.90001 1198.625,256.9 C1196.52499,254.89999 1193.77502,253.175007 1190.375,251.725 C1186.97498,250.274993 1183.10002,248.925006 1178.75,247.675 C1174.39998,246.424994 1169.97502,245.000008 1165.475,243.4 C1160.97498,241.799992 1156.55002,239.875011 1152.2,237.625 C1147.84998,235.374989 1143.97502,232.525017 1140.575,229.075 C1137.17498,225.624983 1134.42501,221.400025 1132.325,216.4 C1130.22499,211.399975 1129.175,205.350035 1129.175,198.25 C1129.175,191.649967 1130.44999,185.37503 1133,179.425 C1135.55001,173.47497 1139.37497,168.250023 1144.475,163.75 C1149.57503,159.249977 1155.97496,155.675013 1163.675,153.025 C1171.37504,150.374987 1180.37495,149.05 1190.675,149.05 C1196.27503,149.05 1201.69997,149.549995 1206.95,150.55 C1212.20003,151.550005 1217.12498,152.949991 1221.725,154.75 C1226.32502,156.550009 1230.52498,158.674988 1234.325,161.125 C1238.12502,163.575012 1241.47499,166.249986 1244.375,169.15 L1233.875,185.5 Z M1403.175,151.45 L1403.175,307 L1374.375,307 C1368.57497,307 1364.77501,304.400026 1362.975,299.2 L1360.275,290.2 C1357.27499,293.100014 1354.17502,295.724988 1350.975,298.075 C1347.77498,300.425012 1344.35002,302.424992 1340.7,304.075 C1337.04998,305.725008 1333.10002,307.024995 1328.85,307.975 C1324.59998,308.925005 1319.97502,309.4 1314.975,309.4 C1306.47496,309.4 1298.95003,307.925015 1292.4,304.975 C1285.84997,302.024985 1280.32502,297.900026 1275.825,292.6 C1271.32498,287.299973 1267.92501,281.050036 1265.625,273.85 C1263.32499,266.649964 1262.175,258.750043 1262.175,250.15 L1262.175,151.45 L1308.675,151.45 L1308.675,250.15 C1308.675,257.850039 1310.42498,263.799979 1313.925,268 C1317.42502,272.200021 1322.57497,274.3 1329.375,274.3 C1334.47503,274.3 1339.24998,273.225011 1343.7,271.075 C1348.15002,268.924989 1352.47498,266.000019 1356.675,262.3 L1356.675,151.45 L1403.175,151.45 Z" id="Sheetsu" fill="#0F9D57"></path>
    </g>
</svg>