<?xml version="1.0" standalone="no"?><!DOCTYPE svg PUBLIC "-//W3C//DTD SVG 1.1//EN" "http://www.w3.org/Graphics/SVG/1.1/DTD/svg11.dtd"><svg width="100%" height="100%" viewBox="0 0 638 985" version="1.1" xmlns="http://www.w3.org/2000/svg" xmlns:xlink="http://www.w3.org/1999/xlink" xml:space="preserve" style="fill-rule:evenodd;clip-rule:evenodd;stroke-linejoin:round;stroke-miterlimit:1.41421;"><g id="R wariations"><g id="monogram symmetric curves"><clipPath id="_clip1"><rect x="249.702" y="0.51" width="383.74" height="563.287"/></clipPath><g clip-path="url(#_clip1)"><path d="M531.345,563.797c-155.443,0 -281.643,-126.2 -281.643,-281.643c0,-155.444 126.2,-281.644 281.643,-281.644c155.444,0 281.644,126.2 281.644,281.644c0,155.443 -126.2,281.643 -281.644,281.643ZM531.345,422.975c-77.721,0 -140.821,-63.1 -140.821,-140.821c0,-77.722 63.1,-140.822 140.821,-140.822c77.722,0 140.822,63.1 140.822,140.822c0,77.721 -63.1,140.821 -140.822,140.821Z" style="fill:#222;"/></g><clipPath id="_clip2"><rect x="6.784" y="0.51" width="383.74" height="563.287"/></clipPath><g clip-path="url(#_clip2)"><path d="M108.88,563.797c155.443,0 281.644,-126.2 281.644,-281.643c0,-155.444 -126.201,-281.644 -281.644,-281.644c-155.444,0 -281.644,126.2 -281.644,281.644c0,155.443 126.2,281.643 281.644,281.643ZM108.88,422.975c77.721,0 140.822,-63.1 140.822,-140.821c0,-77.722 -63.101,-140.822 -140.822,-140.822c-77.722,0 -140.822,63.1 -140.822,140.822c0,77.721 63.1,140.821 140.822,140.821Z" style="fill:#222;"/></g><g><path d="M6.775,451.53l0,533.011l152.096,0l0,-533.011l-152.096,0Z" style="fill:#222;"/><path d="M482.13,449.697l0,535.303l151.736,0l0,-535.303l-151.736,0Z" style="fill:#222;"/><path d="M40.171,451.533l164.32,0l403.509,533.467l-164.668,0l-403.397,-533.318l0.236,-0.149Z" style="fill:#222;"/></g></g></g></svg>
